{"asset":{"version":"2.0","generator":"Blockbench 4.8.3 glTF exporter"},"scenes":[{"nodes":[19],"name":"blockbench_export"}],"scene":0,"nodes":[{"name":"cuboid","mesh":0},{"name":"cuboid","mesh":1},{"rotation":[0,-1,0,6.123233995736766e-17],"name":"cuboid","mesh":2},{"rotation":[0,-1,0,6.123233995736766e-17],"name":"cuboid","mesh":3},{"name":"cuboid","mesh":4},{"rotation":[0,-1,0,6.123233995736766e-17],"name":"cuboid","mesh":5},{"name":"cuboid","mesh":6},{"name":"cuboid","mesh":7},{"name":"cuboid","mesh":8},{"rotation":[0,-0.7071067811865475,0,0.7071067811865476],"name":"cuboid","mesh":9},{"rotation":[0,-0.7071067811865475,0,0.7071067811865476],"name":"cuboid","mesh":10},{"rotation":[0.7071067811865475,0,0,0.7071067811865476],"translation":[0,0.015625,0],"name":"cylinder","mesh":11},{"rotation":[0.7071067811865475,0,0,0.7071067811865476],"translation":[0,0.015625,0],"name":"cylinder","mesh":12},{"translation":[0,-0.015625,0],"name":"Top","children":[8,9,10,11,12]},{"name":"cuboid","mesh":13},{"name":"cuboid","mesh":14},{"name":"cuboid","mesh":15},{"name":"cuboid","mesh":16},{"name":"root","children":[0,1,2,3,4,5,6,7,13,14,15,16,17]},{"children":[18]}],"bufferViews":[{"buffer":0,"byteOffset":0,"byteLength":672,"target":34962,"byteStride":12},{"buffer":0,"byteOffset":672,"byteLength":672,"target":34962,"byteStride":12},{"buffer":0,"byteOffset":1344,"byteLength":448,"target":34962,"byteStride":8},{"buffer":0,"byteOffset":1792,"byteLength":168,"target":34963},{"buffer":0,"byteOffset":1960,"byteLength":288,"target":34962,"byteStride":12},{"buffer":0,"byteOffset":2248,"byteLength":288,"target":34962,"byteStride":12},{"buffer":0,"byteOffset":2536,"byteLength":192,"target":34962,"byteStride":8},{"buffer":0,"byteOffset":2728,"byteLength":72,"target":34963},{"buffer":0,"byteOffset":2800,"byteLength":672,"target":34962,"byteStride":12},{"buffer":0,"byteOffset":3472,"byteLength":672,"target":34962,"byteStride":12},{"buffer":0,"byteOffset":4144,"byteLength":448,"target":34962,"byteStride":8},{"buffer":0,"byteOffset":4592,"byteLength":168,"target":34963},{"buffer":0,"byteOffset":4760,"byteLength":288,"target":34962,"byteStride":12},{"buffer":0,"byteOffset":5048,"byteLength":288,"target":34962,"byteStride":12},{"buffer":0,"byteOffset":5336,"byteLength":192,"target":34962,"byteStride":8},{"buffer":0,"byteOffset":5528,"byteLength":72,"target":34963},{"buffer":0,"byteOffset":5600,"byteLength":288,"target":34962,"byteStride":12},{"buffer":0,"byteOffset":5888,"byteLength":288,"target":34962,"byteStride":12},{"buffer":0,"byteOffset":6176,"byteLength":192,"target":34962,"byteStride":8},{"buffer":0,"byteOffset":6368,"byteLength":72,"target":34963},{"buffer":0,"byteOffset":6440,"byteLength":288,"target":34962,"byteStride":12},{"buffer":0,"byteOffset":6728,"byteLength":288,"target":34962,"byteStride":12},{"buffer":0,"byteOffset":7016,"byteLength":192,"target":34962,"byteStride":8},{"buffer":0,"byteOffset":7208,"byteLength":72,"target":34963},{"buffer":0,"byteOffset":7280,"byteLength":288,"target":34962,"byteStride":12},{"buffer":0,"byteOffset":7568,"byteLength":288,"target":34962,"byteStride":12},{"buffer":0,"byteOffset":7856,"byteLength":192,"target":34962,"byteStride":8},{"buffer":0,"byteOffset":8048,"byteLength":72,"target":34963},{"buffer":0,"byteOffset":8120,"byteLength":288,"target":34962,"byteStride":12},{"buffer":0,"byteOffset":8408,"byteLength":288,"target":34962,"byteStride":12},{"buffer":0,"byteOffset":8696,"byteLength":192,"target":34962,"byteStride":8},{"buffer":0,"byteOffset":8888,"byteLength":72,"target":34963},{"buffer":0,"byteOffset":8960,"byteLength":288,"target":34962,"byteStride":12},{"buffer":0,"byteOffset":9248,"byteLength":288,"target":34962,"byteStride":12},{"buffer":0,"byteOffset":9536,"byteLength":192,"target":34962,"byteStride":8},{"buffer":0,"byteOffset":9728,"byteLength":72,"target":34963},{"buffer":0,"byteOffset":9800,"byteLength":288,"target":34962,"byteStride":12},{"buffer":0,"byteOffset":10088,"byteLength":288,"target":34962,"byteStride":12},{"buffer":0,"byteOffset":10376,"byteLength":192,"target":34962,"byteStride":8},{"buffer":0,"byteOffset":10568,"byteLength":72,"target":34963},{"buffer":0,"byteOffset":10640,"byteLength":288,"target":34962,"byteStride":12},{"buffer":0,"byteOffset":10928,"byteLength":288,"target":34962,"byteStride":12},{"buffer":0,"byteOffset":11216,"byteLength":192,"target":34962,"byteStride":8},{"buffer":0,"byteOffset":11408,"byteLength":72,"target":34963},{"buffer":0,"byteOffset":11480,"byteLength":720,"target":34962,"byteStride":12},{"buffer":0,"byteOffset":12200,"byteLength":720,"target":34962,"byteStride":12},{"buffer":0,"byteOffset":12920,"byteLength":480,"target":34962,"byteStride":8},{"buffer":0,"byteOffset":13400,"byteLength":144,"target":34963},{"buffer":0,"byteOffset":13544,"byteLength":720,"target":34962,"byteStride":12},{"buffer":0,"byteOffset":14264,"byteLength":720,"target":34962,"byteStride":12},{"buffer":0,"byteOffset":14984,"byteLength":480,"target":34962,"byteStride":8},{"buffer":0,"byteOffset":15464,"byteLength":144,"target":34963},{"buffer":0,"byteOffset":15608,"byteLength":288,"target":34962,"byteStride":12},{"buffer":0,"byteOffset":15896,"byteLength":288,"target":34962,"byteStride":12},{"buffer":0,"byteOffset":16184,"byteLength":192,"target":34962,"byteStride":8},{"buffer":0,"byteOffset":16376,"byteLength":72,"target":34963},{"buffer":0,"byteOffset":16448,"byteLength":288,"target":34962,"byteStride":12},{"buffer":0,"byteOffset":16736,"byteLength":288,"target":34962,"byteStride":12},{"buffer":0,"byteOffset":17024,"byteLength":192,"target":34962,"byteStride":8},{"buffer":0,"byteOffset":17216,"byteLength":72,"target":34963},{"buffer":0,"byteOffset":17288,"byteLength":288,"target":34962,"byteStride":12},{"buffer":0,"byteOffset":17576,"byteLength":288,"target":34962,"byteStride":12},{"buffer":0,"byteOffset":17864,"byteLength":192,"target":34962,"byteStride":8},{"buffer":0,"byteOffset":18056,"byteLength":72,"target":34963},{"buffer":0,"byteOffset":18128,"byteLength":288,"target":34962,"byteStride":12},{"buffer":0,"byteOffset":18416,"byteLength":288,"target":34962,"byteStride":12},{"buffer":0,"byteOffset":18704,"byteLength":192,"target":34962,"byteStride":8},{"buffer":0,"byteOffset":18896,"byteLength":72,"target":34963}],"buffers":[{"byteLength":18968,"uri":"data:application/octet-stream;base64,"}],"accessors":[{"bufferView":0,"componentType":5126,"count":56,"max":[0.4375,0.1875,0.078125],"min":[-0.5,0.09375,0.015625],"type":"VEC3"},{"bufferView":1,"componentType":5126,"count":56,"max":[1,1,1],"min":[-1,-1,-1],"type":"VEC3"},{"bufferView":2,"componentType":5126,"count":56,"max":[0.734375,0.7421875],"min":[0,0.125],"type":"VEC2"},{"bufferView":3,"componentType":5123,"count":84,"max":[55],"min":[0],"type":"SCALAR"},{"bufferView":4,"componentType":5126,"count":24,"max":[-0.265625,0.15625,0.3125],"min":[-0.484375,-0.84375,0.046875],"type":"VEC3"},{"bufferView":5,"componentType":5126,"count":24,"max":[0.9922778606414795,1,0.9736163020133972],"min":[-0.9922778606414795,-1,-0.9736163020133972],"type":"VEC3"},{"bufferView":6,"componentType":5126,"count":24,"max":[0.6875,0.703125],"min":[0.0625,0.09375],"type":"VEC2"},{"bufferView":7,"componentType":5123,"count":36,"max":[23],"min":[0],"type":"SCALAR"},{"bufferView":8,"componentType":5126,"count":56,"max":[0.5,0.1875,0.078125],"min":[-0.4375,0.09375,0.015625],"type":"VEC3"},{"bufferView":9,"componentType":5126,"count":56,"max":[1,1,1],"min":[-1,-1,-1],"type":"VEC3"},{"bufferView":10,"componentType":5126,"count":56,"max":[0.734375,0.7421875],"min":[0.25,0],"type":"VEC2"},{"bufferView":11,"componentType":5123,"count":84,"max":[55],"min":[0],"type":"SCALAR"},{"bufferView":12,"componentType":5126,"count":24,"max":[-0.203125,0.15625,0.3125],"min":[-0.421875,-0.84375,0.046875],"type":"VEC3"},{"bufferView":13,"componentType":5126,"count":24,"max":[0.9922778606414795,1,0.9736163020133972],"min":[-0.9922778606414795,-1,-0.9736163020133972],"type":"VEC3"},{"bufferView":14,"componentType":5126,"count":24,"max":[0.71875,0.6666886806488037],"min":[0.09385882318019867,0.3127176761627197],"type":"VEC2"},{"bufferView":15,"componentType":5123,"count":36,"max":[23],"min":[0],"type":"SCALAR"},{"bufferView":16,"componentType":5126,"count":24,"max":[-0.265625,0.15625,-0.046875],"min":[-0.484375,-0.84375,-0.3125],"type":"VEC3"},{"bufferView":17,"componentType":5126,"count":24,"max":[0.9922778606414795,1,0.9736163020133972],"min":[-0.9922778606414795,-1,-0.9736163020133972],"type":"VEC3"},{"bufferView":18,"componentType":5126,"count":24,"max":[0.71875,0.703125],"min":[0,0.3125],"type":"VEC2"},{"bufferView":19,"componentType":5123,"count":36,"max":[23],"min":[0],"type":"SCALAR"},{"bufferView":20,"componentType":5126,"count":24,"max":[-0.203125,0.15625,-0.046875],"min":[-0.421875,-0.84375,-0.3125],"type":"VEC3"},{"bufferView":21,"componentType":5126,"count":24,"max":[0.9922778606414795,1,0.9736163020133972],"min":[-0.9922778606414795,-1,-0.9736163020133972],"type":"VEC3"},{"bufferView":22,"componentType":5126,"count":24,"max":[0.71875,0.66796875],"min":[0.03125,0.3125],"type":"VEC2"},{"bufferView":23,"componentType":5123,"count":36,"max":[23],"min":[0],"type":"SCALAR"},{"bufferView":24,"componentType":5126,"count":24,"max":[0.375,-0.625,0.25],"min":[0.3125,-0.6875,-0.25],"type":"VEC3"},{"bufferView":25,"componentType":5126,"count":24,"max":[1,1,1],"min":[-1,-1,-1],"type":"VEC3"},{"bufferView":26,"componentType":5126,"count":24,"max":[0.734375,0.78125],"min":[0.046875,0.21875],"type":"VEC2"},{"bufferView":27,"componentType":5123,"count":36,"max":[23],"min":[0],"type":"SCALAR"},{"bufferView":28,"componentType":5126,"count":24,"max":[-0.390625,-0.625,0.25],"min":[-0.453125,-0.6875,-0.25],"type":"VEC3"},{"bufferView":29,"componentType":5126,"count":24,"max":[1,1,1],"min":[-1,-1,-1],"type":"VEC3"},{"bufferView":30,"componentType":5126,"count":24,"max":[0.75,0.78125],"min":[0.25,0.5625],"type":"VEC2"},{"bufferView":31,"componentType":5123,"count":36,"max":[23],"min":[0],"type":"SCALAR"},{"bufferView":32,"componentType":5126,"count":24,"max":[0.4375,0.265625,0.09375],"min":[-0.5,0.234375,-0.09375],"type":"VEC3"},{"bufferView":33,"componentType":5126,"count":24,"max":[1,1,1],"min":[-1,-1,-1],"type":"VEC3"},{"bufferView":34,"componentType":5126,"count":24,"max":[0.734375,0.515625],"min":[0,0],"type":"VEC2"},{"bufferView":35,"componentType":5123,"count":36,"max":[23],"min":[0],"type":"SCALAR"},{"bufferView":36,"componentType":5126,"count":24,"max":[0.015625,0.25,0.421875],"min":[-0.015625,-0.09375,0.328125],"type":"VEC3"},{"bufferView":37,"componentType":5126,"count":24,"max":[1,1,1],"min":[-1,-1,-1],"type":"VEC3"},{"bufferView":38,"componentType":5126,"count":24,"max":[0.734375,0.75],"min":[0.21875,0.125],"type":"VEC2"},{"bufferView":39,"componentType":5123,"count":36,"max":[23],"min":[0],"type":"SCALAR"},{"bufferView":40,"componentType":5126,"count":24,"max":[0.015625,0.25,-0.265625],"min":[-0.015625,-0.09375,-0.359375],"type":"VEC3"},{"bufferView":41,"componentType":5126,"count":24,"max":[1,1,1],"min":[-1,-1,-1],"type":"VEC3"},{"bufferView":42,"componentType":5126,"count":24,"max":[0.5625,0.75],"min":[0,0.40625],"type":"VEC2"},{"bufferView":43,"componentType":5123,"count":36,"max":[23],"min":[0],"type":"SCALAR"},{"bufferView":44,"componentType":5126,"count":60,"max":[-0.35454061627388,0.09375,-0.1875],"min":[-0.39545938372612,-0.09375,-0.21875],"type":"VEC3"},{"bufferView":45,"componentType":5126,"count":60,"max":[0.8366420865058899,1,1],"min":[-0.8366420865058899,-1,-1],"type":"VEC3"},{"bufferView":46,"componentType":5126,"count":60,"max":[0.6875,0.7421875],"min":[0.0007437500171363354,0.59375],"type":"VEC2"},{"bufferView":47,"componentType":5123,"count":72,"max":[59],"min":[0],"type":"SCALAR"},{"bufferView":48,"componentType":5126,"count":60,"max":[0.33295938372612,0.09375,-0.1875],"min":[0.29204061627388,-0.09375,-0.21875],"type":"VEC3"},{"bufferView":49,"componentType":5126,"count":60,"max":[0.8366420865058899,1,1],"min":[-0.8366420865058899,-1,-1],"type":"VEC3"},{"bufferView":50,"componentType":5126,"count":60,"max":[0.7453500032424927,0.734375],"min":[0.109375,0.125],"type":"VEC2"},{"bufferView":51,"componentType":5123,"count":72,"max":[59],"min":[0],"type":"SCALAR"},{"bufferView":52,"componentType":5126,"count":24,"max":[0.359375,-0.640625,0.203125],"min":[-0.421875,-0.671875,0.109375],"type":"VEC3"},{"bufferView":53,"componentType":5126,"count":24,"max":[1,1,1],"min":[-1,-1,-1],"type":"VEC3"},{"bufferView":54,"componentType":5126,"count":24,"max":[0.828125,0.640625],"min":[0.25,0],"type":"VEC2"},{"bufferView":55,"componentType":5123,"count":36,"max":[23],"min":[0],"type":"SCALAR"},{"bufferView":56,"componentType":5126,"count":24,"max":[0.359375,-0.640625,0.09375],"min":[-0.421875,-0.671875,0],"type":"VEC3"},{"bufferView":57,"componentType":5126,"count":24,"max":[1,1,1],"min":[-1,-1,-1],"type":"VEC3"},{"bufferView":58,"componentType":5126,"count":24,"max":[0.75,0.703125],"min":[0.21875,0],"type":"VEC2"},{"bufferView":59,"componentType":5123,"count":36,"max":[23],"min":[0],"type":"SCALAR"},{"bufferView":60,"componentType":5126,"count":24,"max":[0.359375,-0.640625,-0.015625],"min":[-0.421875,-0.671875,-0.109375],"type":"VEC3"},{"bufferView":61,"componentType":5126,"count":24,"max":[1,1,1],"min":[-1,-1,-1],"type":"VEC3"},{"bufferView":62,"componentType":5126,"count":24,"max":[0.734375,0.671875],"min":[0,0.125],"type":"VEC2"},{"bufferView":63,"componentType":5123,"count":36,"max":[23],"min":[0],"type":"SCALAR"},{"bufferView":64,"componentType":5126,"count":24,"max":[0.359375,-0.640625,-0.125],"min":[-0.421875,-0.671875,-0.21875],"type":"VEC3"},{"bufferView":65,"componentType":5126,"count":24,"max":[1,1,1],"min":[-1,-1,-1],"type":"VEC3"},{"bufferView":66,"componentType":5126,"count":24,"max":[0.734375,0.71875],"min":[0,0.09375],"type":"VEC2"},{"bufferView":67,"componentType":5123,"count":36,"max":[23],"min":[0],"type":"SCALAR"}],"materials":[{"pbrMetallicRoughness":{"metallicFactor":0,"roughnessFactor":1,"baseColorTexture":{"index":0}},"alphaMode":"MASK","alphaCutoff":0.05,"doubleSided":true}],"textures":[{"sampler":0,"source":0,"name":"texture"}],"samplers":[{"magFilter":9728,"minFilter":9728,"wrapS":33071,"wrapT":33071}],"images":[{"mimeType":"image/png","uri":"data:image/png;base64,"}],"meshes":[{"primitives":[{"mode":4,"attributes":{"POSITION":0,"NORMAL":1,"TEXCOORD_0":2},"indices":3,"material":0}]},{"primitives":[{"mode":4,"attributes":{"POSITION":4,"NORMAL":5,"TEXCOORD_0":6},"indices":7,"material":0}]},{"primitives":[{"mode":4,"attributes":{"POSITION":8,"NORMAL":9,"TEXCOORD_0":10},"indices":11,"material":0}]},{"primitives":[{"mode":4,"attributes":{"POSITION":12,"NORMAL":13,"TEXCOORD_0":14},"indices":15,"material":0}]},{"primitives":[{"mode":4,"attributes":{"POSITION":16,"NORMAL":17,"TEXCOORD_0":18},"indices":19,"material":0}]},{"primitives":[{"mode":4,"attributes":{"POSITION":20,"NORMAL":21,"TEXCOORD_0":22},"indices":23,"material":0}]},{"primitives":[{"mode":4,"attributes":{"POSITION":24,"NORMAL":25,"TEXCOORD_0":26},"indices":27,"material":0}]},{"primitives":[{"mode":4,"attributes":{"POSITION":28,"NORMAL":29,"TEXCOORD_0":30},"indices":31,"material":0}]},{"primitives":[{"mode":4,"attributes":{"POSITION":32,"NORMAL":33,"TEXCOORD_0":34},"indices":35,"material":0}]},{"primitives":[{"mode":4,"attributes":{"POSITION":36,"NORMAL":37,"TEXCOORD_0":38},"indices":39,"material":0}]},{"primitives":[{"mode":4,"attributes":{"POSITION":40,"NORMAL":41,"TEXCOORD_0":42},"indices":43,"material":0}]},{"primitives":[{"mode":4,"attributes":{"POSITION":44,"NORMAL":45,"TEXCOORD_0":46},"indices":47,"material":0}]},{"primitives":[{"mode":4,"attributes":{"POSITION":48,"NORMAL":49,"TEXCOORD_0":50},"indices":51,"material":0}]},{"primitives":[{"mode":4,"attributes":{"POSITION":52,"NORMAL":53,"TEXCOORD_0":54},"indices":55,"material":0}]},{"primitives":[{"mode":4,"attributes":{"POSITION":56,"NORMAL":57,"TEXCOORD_0":58},"indices":59,"material":0}]},{"primitives":[{"mode":4,"attributes":{"POSITION":60,"NORMAL":61,"TEXCOORD_0":62},"indices":63,"material":0}]},{"primitives":[{"mode":4,"attributes":{"POSITION":64,"NORMAL":65,"TEXCOORD_0":66},"indices":67,"material":0}]}]}