{"asset":{"version":"2.0","generator":"Blockbench 4.8.3 glTF exporter"},"scenes":[{"nodes":[14],"name":"blockbench_export"}],"scene":0,"nodes":[{"translation":[0,0.125,0],"name":"cylinder","mesh":0},{"rotation":[0.42261826174069944,0,0,0.9063077870366499],"translation":[-0.0625,0.5625,-0.75],"name":"plane","mesh":1},{"rotation":[0.2052093039454263,-0.8280793919172059,0.39298488067617326,0.34312759407572846],"translation":[0.5625,0.75,0.5625],"name":"plane","mesh":2},{"rotation":[0.2553273859767846,0.581517794163813,-0.1358048083945921,0.7603959725419535],"translation":[-0.3125,0,-0.3125],"name":"plane","mesh":3},{"rotation":[0.4138549181745747,0.5383399602114581,-0.2584491790502821,0.6871085909741466],"translation":[-0.8125,1.125,-0.5],"name":"plane","mesh":4},{"rotation":[0.29728595018713844,-0.7582413967454736,0.40317633769525757,0.41730071747535125],"translation":[0.9375,0.5,0.0625],"name":"plane","mesh":5},{"name":"leaves","children":[1,2,3,4,5]},{"rotation":[-0.5972675627887615,0.37429119412455536,0.6311871385309831,-0.32369794036146826],"translation":[-0.0625,1.375,0.3125],"name":"plane","mesh":6},{"rotation":[0.14594104324022428,-0.13137481391241462,-0.856637004398313,0.4770900469124443],"translation":[0.34375,1.0625,0.0625],"name":"plane","mesh":7},{"rotation":[0.822222865159938,-0.29603662942168013,0.45994521772569696,-0.1573603213649949],"translation":[-0.125,1.09375,-0.421875],"name":"plane","mesh":8},{"rotation":[-0.8356572984877253,0.4599520196111965,-0.2383330125911149,0.18253326888274876],"translation":[-0.1875,1.5625,-0.0625],"name":"plane","mesh":9},{"rotation":[0.013927988091490293,-0.05726925606206765,-0.868868089271487,0.4915226209479438],"translation":[0.1875,1.8125,-0.0625],"name":"plane","mesh":10},{"name":"stems","children":[7,8,9,10,11]},{"translation":[0,-0.25,0],"name":"root","children":[0,6,12]},{"children":[13]}],"bufferViews":[{"buffer":0,"byteOffset":0,"byteLength":2112,"target":34962,"byteStride":12},{"buffer":0,"byteOffset":2112,"byteLength":2112,"target":34962,"byteStride":12},{"buffer":0,"byteOffset":4224,"byteLength":1408,"target":34962,"byteStride":8},{"buffer":0,"byteOffset":5632,"byteLength":480,"target":34963},{"buffer":0,"byteOffset":6112,"byteLength":48,"target":34962,"byteStride":12},{"buffer":0,"byteOffset":6160,"byteLength":48,"target":34962,"byteStride":12},{"buffer":0,"byteOffset":6208,"byteLength":32,"target":34962,"byteStride":8},{"buffer":0,"byteOffset":6240,"byteLength":12,"target":34963},{"buffer":0,"byteOffset":6252,"byteLength":48,"target":34962,"byteStride":12},{"buffer":0,"byteOffset":6300,"byteLength":48,"target":34962,"byteStride":12},{"buffer":0,"byteOffset":6348,"byteLength":32,"target":34962,"byteStride":8},{"buffer":0,"byteOffset":6380,"byteLength":12,"target":34963},{"buffer":0,"byteOffset":6392,"byteLength":48,"target":34962,"byteStride":12},{"buffer":0,"byteOffset":6440,"byteLength":48,"target":34962,"byteStride":12},{"buffer":0,"byteOffset":6488,"byteLength":32,"target":34962,"byteStride":8},{"buffer":0,"byteOffset":6520,"byteLength":12,"target":34963},{"buffer":0,"byteOffset":6532,"byteLength":48,"target":34962,"byteStride":12},{"buffer":0,"byteOffset":6580,"byteLength":48,"target":34962,"byteStride":12},{"buffer":0,"byteOffset":6628,"byteLength":32,"target":34962,"byteStride":8},{"buffer":0,"byteOffset":6660,"byteLength":12,"target":34963},{"buffer":0,"byteOffset":6672,"byteLength":48,"target":34962,"byteStride":12},{"buffer":0,"byteOffset":6720,"byteLength":48,"target":34962,"byteStride":12},{"buffer":0,"byteOffset":6768,"byteLength":32,"target":34962,"byteStride":8},{"buffer":0,"byteOffset":6800,"byteLength":12,"target":34963},{"buffer":0,"byteOffset":6812,"byteLength":144,"target":34962,"byteStride":12},{"buffer":0,"byteOffset":6956,"byteLength":144,"target":34962,"byteStride":12},{"buffer":0,"byteOffset":7100,"byteLength":96,"target":34962,"byteStride":8},{"buffer":0,"byteOffset":7196,"byteLength":36,"target":34963},{"buffer":0,"byteOffset":7232,"byteLength":144,"target":34962,"byteStride":12},{"buffer":0,"byteOffset":7376,"byteLength":144,"target":34962,"byteStride":12},{"buffer":0,"byteOffset":7520,"byteLength":96,"target":34962,"byteStride":8},{"buffer":0,"byteOffset":7616,"byteLength":36,"target":34963},{"buffer":0,"byteOffset":7652,"byteLength":144,"target":34962,"byteStride":12},{"buffer":0,"byteOffset":7796,"byteLength":144,"target":34962,"byteStride":12},{"buffer":0,"byteOffset":7940,"byteLength":96,"target":34962,"byteStride":8},{"buffer":0,"byteOffset":8036,"byteLength":36,"target":34963},{"buffer":0,"byteOffset":8072,"byteLength":144,"target":34962,"byteStride":12},{"buffer":0,"byteOffset":8216,"byteLength":144,"target":34962,"byteStride":12},{"buffer":0,"byteOffset":8360,"byteLength":96,"target":34962,"byteStride":8},{"buffer":0,"byteOffset":8456,"byteLength":36,"target":34963},{"buffer":0,"byteOffset":8492,"byteLength":144,"target":34962,"byteStride":12},{"buffer":0,"byteOffset":8636,"byteLength":144,"target":34962,"byteStride":12},{"buffer":0,"byteOffset":8780,"byteLength":96,"target":34962,"byteStride":8},{"buffer":0,"byteOffset":8876,"byteLength":36,"target":34963}],"buffers":[{"byteLength":8912,"uri":"data:application/octet-stream;base64,"}],"accessors":[{"bufferView":0,"componentType":5126,"count":176,"max":[0.40625,0.78125,0.40625],"min":[-0.40625,0.125,-0.40625],"type":"VEC3"},{"bufferView":1,"componentType":5126,"count":176,"max":[0.9907891154289246,1,0.9907891154289246],"min":[-0.9907891154289246,-1,-0.9907891154289246],"type":"VEC3"},{"bufferView":2,"componentType":5126,"count":176,"max":[0.6678211688995361,0.6484375],"min":[0.0001924714306369424,0],"type":"VEC2"},{"bufferView":3,"componentType":5123,"count":240,"max":[175],"min":[0],"type":"SCALAR"},{"bufferView":4,"componentType":5126,"count":4,"max":[0.34375,1.4375,0.34375],"min":[-0.34375,1.4375,-0.34375],"type":"VEC3"},{"bufferView":5,"componentType":5126,"count":4,"max":[0,1,0],"min":[0,1,0],"type":"VEC3"},{"bufferView":6,"componentType":5126,"count":4,"max":[0.34375,0.34375],"min":[0,0],"type":"VEC2"},{"bufferView":7,"componentType":5123,"count":6,"max":[3],"min":[0],"type":"SCALAR"},{"bufferView":8,"componentType":5126,"count":4,"max":[0.40625,1.4375,0.40625],"min":[-0.40625,1.4375,-0.40625],"type":"VEC3"},{"bufferView":9,"componentType":5126,"count":4,"max":[0,1,0],"min":[0,1,0],"type":"VEC3"},{"bufferView":10,"componentType":5126,"count":4,"max":[0.34375,0.71875],"min":[0,0.375],"type":"VEC2"},{"bufferView":11,"componentType":5123,"count":6,"max":[3],"min":[0],"type":"SCALAR"},{"bufferView":12,"componentType":5126,"count":4,"max":[0.34375,1.4375,0.34375],"min":[-0.34375,1.4375,-0.34375],"type":"VEC3"},{"bufferView":13,"componentType":5126,"count":4,"max":[0,1,0],"min":[0,1,0],"type":"VEC3"},{"bufferView":14,"componentType":5126,"count":4,"max":[0.65625,0.28125],"min":[0.375,0],"type":"VEC2"},{"bufferView":15,"componentType":5123,"count":6,"max":[3],"min":[0],"type":"SCALAR"},{"bufferView":16,"componentType":5126,"count":4,"max":[0.46875,1.4375,0.46875],"min":[-0.46875,1.4375,-0.46875],"type":"VEC3"},{"bufferView":17,"componentType":5126,"count":4,"max":[0,1,0],"min":[0,1,0],"type":"VEC3"},{"bufferView":18,"componentType":5126,"count":4,"max":[0.65625,0.59375],"min":[0.375,0.3125],"type":"VEC2"},{"bufferView":19,"componentType":5123,"count":6,"max":[3],"min":[0],"type":"SCALAR"},{"bufferView":20,"componentType":5126,"count":4,"max":[0.21875,1.4375,0.21875],"min":[-0.21875,1.4375,-0.21875],"type":"VEC3"},{"bufferView":21,"componentType":5126,"count":4,"max":[0,1,0],"min":[0,1,0],"type":"VEC3"},{"bufferView":22,"componentType":5126,"count":4,"max":[0.53125,0.78125],"min":[0.375,0.625],"type":"VEC2"},{"bufferView":23,"componentType":5123,"count":6,"max":[3],"min":[0],"type":"SCALAR"},{"bufferView":24,"componentType":5126,"count":12,"max":[0.6579596400260925,0.061734773218631744,0.031620267778635025],"min":[-0.15304270386695862,-0.1447642296552658,-0.062129732221364975],"type":"VEC3"},{"bufferView":25,"componentType":5126,"count":12,"max":[-0.2160385400056839,0.9763848185539246,0],"min":[-0.3162277638912201,0.9486833214759827,0],"type":"VEC3"},{"bufferView":26,"componentType":5126,"count":12,"max":[0.265625,0.4187968969345093],"min":[0.21875,0],"type":"VEC2"},{"bufferView":27,"componentType":5123,"count":18,"max":[11],"min":[0],"type":"SCALAR"},{"bufferView":28,"componentType":5126,"count":12,"max":[0.6579596400260925,0.061734773218631744,0.031620267778635025],"min":[-0.15304270386695862,-0.1447642296552658,-0.062129732221364975],"type":"VEC3"},{"bufferView":29,"componentType":5126,"count":12,"max":[-0.2160385400056839,0.9763848185539246,0],"min":[-0.3162277638912201,0.9486833214759827,0],"type":"VEC3"},{"bufferView":30,"componentType":5126,"count":12,"max":[0.359375,0.4187968969345093],"min":[0.3125,0],"type":"VEC2"},{"bufferView":31,"componentType":5123,"count":18,"max":[11],"min":[0],"type":"SCALAR"},{"bufferView":32,"componentType":5126,"count":12,"max":[0.6579596400260925,0.061734773218631744,0.031620267778635025],"min":[-0.15304270386695862,-0.1447642296552658,-0.062129732221364975],"type":"VEC3"},{"bufferView":33,"componentType":5126,"count":12,"max":[-0.2160385400056839,0.9763848185539246,0],"min":[-0.3162277638912201,0.9486833214759827,0],"type":"VEC3"},{"bufferView":34,"componentType":5126,"count":12,"max":[0.453125,0.4187968969345093],"min":[0.40625,0],"type":"VEC2"},{"bufferView":35,"componentType":5123,"count":18,"max":[11],"min":[0],"type":"SCALAR"},{"bufferView":36,"componentType":5126,"count":12,"max":[0.7829596400260925,0.12423477321863174,0.03125],"min":[-0.21554270386695862,-0.0822642371058464,-0.12462973594665527],"type":"VEC3"},{"bufferView":37,"componentType":5126,"count":12,"max":[-4.374278717023117e-14,1,0],"min":[-0.27218079566955566,0.9622461199760437,0],"type":"VEC3"},{"bufferView":38,"componentType":5126,"count":12,"max":[0.17178280651569366,0.5123624801635742],"min":[0.09384218603372574,0],"type":"VEC2"},{"bufferView":39,"componentType":5123,"count":18,"max":[11],"min":[0],"type":"SCALAR"},{"bufferView":40,"componentType":5126,"count":12,"max":[1.0503759384155273,0.28368836641311646,0.03125],"min":[-0.21554270386695862,-0.0822642371058464,-0.15145067870616913],"type":"VEC3"},{"bufferView":41,"componentType":5126,"count":12,"max":[-4.374278717023117e-14,1,0],"min":[-0.3725655674934387,0.9280058741569519,0],"type":"VEC3"},{"bufferView":42,"componentType":5126,"count":12,"max":[0.09255000203847885,0.6648687124252319],"min":[0.0012000000569969416,0],"type":"VEC2"},{"bufferView":43,"componentType":5123,"count":18,"max":[11],"min":[0],"type":"SCALAR"}],"materials":[{"pbrMetallicRoughness":{"metallicFactor":0,"roughnessFactor":1,"baseColorTexture":{"index":0}},"alphaMode":"MASK","alphaCutoff":0.05,"doubleSided":true},{"pbrMetallicRoughness":{"metallicFactor":0,"roughnessFactor":1,"baseColorTexture":{"index":1}},"alphaMode":"MASK","alphaCutoff":0.05,"doubleSided":true},{"pbrMetallicRoughness":{"metallicFactor":0,"roughnessFactor":1,"baseColorTexture":{"index":2}},"alphaMode":"MASK","alphaCutoff":0.05,"doubleSided":true}],"textures":[{"sampler":0,"source":0,"name":"pot.png"},{"sampler":1,"source":1,"name":"leaves.png"},{"sampler":2,"source":2,"name":"texture"}],"samplers":[{"magFilter":9728,"minFilter":9728,"wrapS":33071,"wrapT":33071},{"magFilter":9728,"minFilter":9728,"wrapS":33071,"wrapT":33071},{"magFilter":9728,"minFilter":9728,"wrapS":33071,"wrapT":33071}],"images":[{"mimeType":"image/png","uri":"data:image/png;base64,"},{"mimeType":"image/png","uri":"data:image/png;base64,"},{"mimeType":"image/png","uri":"data:image/png;base64,"}],"meshes":[{"primitives":[{"mode":4,"attributes":{"POSITION":0,"NORMAL":1,"TEXCOORD_0":2},"indices":3,"material":0}]},{"primitives":[{"mode":4,"attributes":{"POSITION":4,"NORMAL":5,"TEXCOORD_0":6},"indices":7,"material":1}]},{"primitives":[{"mode":4,"attributes":{"POSITION":8,"NORMAL":9,"TEXCOORD_0":10},"indices":11,"material":1}]},{"primitives":[{"mode":4,"attributes":{"POSITION":12,"NORMAL":13,"TEXCOORD_0":14},"indices":15,"material":1}]},{"primitives":[{"mode":4,"attributes":{"POSITION":16,"NORMAL":17,"TEXCOORD_0":18},"indices":19,"material":1}]},{"primitives":[{"mode":4,"attributes":{"POSITION":20,"NORMAL":21,"TEXCOORD_0":22},"indices":23,"material":1}]},{"primitives":[{"mode":4,"attributes":{"POSITION":24,"NORMAL":25,"TEXCOORD_0":26},"indices":27,"material":2}]},{"primitives":[{"mode":4,"attributes":{"POSITION":28,"NORMAL":29,"TEXCOORD_0":30},"indices":31,"material":2}]},{"primitives":[{"mode":4,"attributes":{"POSITION":32,"NORMAL":33,"TEXCOORD_0":34},"indices":35,"material":2}]},{"primitives":[{"mode":4,"attributes":{"POSITION":36,"NORMAL":37,"TEXCOORD_0":38},"indices":39,"material":2}]},{"primitives":[{"mode":4,"attributes":{"POSITION":40,"NORMAL":41,"TEXCOORD_0":42},"indices":43,"material":2}]}]}